<?xml version="1.0" encoding="UTF-8"?><svg width="159" height="149" viewBox="0 0 159 149" xmlns="http://www.w3.org/2000/svg" xmlns:xlink="http://www.w3.org/1999/xlink"><svg width="11" height="16" viewBox="-1 -1 11 16" id="arrow" x="62" y="122.03999999999999" xmlns="http://www.w3.org/2000/svg"><defs><path d="M7.5 11.727c-.386 0-.623-.155-.935-.487L1.178 5.494a.917.917 0 0 1 0-1.238.785.785 0 0 1 1.16 0L7.5 9.763l5.162-5.507a.785.785 0 0 1 1.16 0c.32.342.32.896 0 1.238l-5.368 5.725c-.318.34-.568.508-.954.508z" id="aa"/></defs><g fill="none" fill-rule="evenodd"><path d="M-1283-608H83v829h-1366z"/><g transform="matrix(-1 0 0 1 12 -1)" opacity=".3"><path d="M0 0h15v16H0z"/><use fill="#000" fill-rule="nonzero" transform="matrix(0 1 1 0 -.363 .363)" xlink:href="#aa"/></g></g></svg><svg width="11" height="16" viewBox="-1 -1 11 16" id="arrow-active" x="144" y="84.03999999999999" xmlns="http://www.w3.org/2000/svg"><defs><path d="M7.5 11.727c-.386 0-.623-.155-.935-.487L1.178 5.494a.917.917 0 0 1 0-1.238.785.785 0 0 1 1.16 0L7.5 9.763l5.162-5.507a.785.785 0 0 1 1.16 0c.32.342.32.896 0 1.238l-5.368 5.725c-.318.34-.568.508-.954.508z" id="ba"/></defs><g fill="none" fill-rule="evenodd"><path d="M-1283-608H83v829h-1366z"/><g transform="matrix(-1 0 0 1 12 -1)" opacity=".7"><path d="M0 0h15v16H0z"/><use fill="#000" fill-rule="nonzero" transform="matrix(0 1 1 0 -.363 .363)" xlink:href="#ba"/></g></g></svg><svg width="11" height="16" viewBox="-1 -1 11 16" id="arrow-down" x="73" y="122.03999999999999" xmlns="http://www.w3.org/2000/svg"><defs><path d="M7.5 11.727c-.386 0-.623-.155-.935-.487L1.178 5.494a.917.917 0 0 1 0-1.238.785.785 0 0 1 1.16 0L7.5 9.763l5.162-5.507a.785.785 0 0 1 1.16 0c.32.342.32.896 0 1.238l-5.368 5.725c-.318.34-.568.508-.954.508z" id="ca"/></defs><g fill="none" fill-rule="evenodd"><path d="M-1283-608H83v829h-1366z"/><g transform="matrix(-1 0 0 1 12 -1)" opacity=".3"><path d="M0 0h15v16H0z"/><mask id="cb" fill="#fff"><use xlink:href="#ca"/></mask><g mask="url(#cb)" fill="#333"><path d="M-76.875-57h169V73h-169z"/></g></g></g></svg><svg width="18" height="16" viewBox="-1 -1 18 16" id="burger" x="88" y="66.03999999999999" xmlns="http://www.w3.org/2000/svg"><defs><path d="M0 3.326a.995.995 0 0 1 1-.993h14c.552 0 1 .44 1 .993v.681A.995.995 0 0 1 15 5H1c-.552 0-1-.44-1-.993v-.68zM0 8.66a.995.995 0 0 1 1-.993h14c.552 0 1 .44 1 .993v.68a.995.995 0 0 1-1 .993H1c-.552 0-1-.44-1-.993v-.68zm0 5.333A.995.995 0 0 1 1 13h14c.552 0 1 .44 1 .993v.68a.995.995 0 0 1-1 .994H1c-.552 0-1-.44-1-.993v-.681z" id="da"/></defs><use fill="#333" xlink:href="#da" transform="translate(0 -2)" fill-rule="evenodd"/></svg><svg width="28" height="28" viewBox="-1 -1 28 28" id="cloud-drizzle" x="38" y="84.03999999999999" xmlns="http://www.w3.org/2000/svg"><g fill="none" fill-rule="evenodd"><path d="M-212-365h1366v768H-212z"/><path d="M0 0h26v26H0z"/><g stroke="#333" stroke-linecap="round" stroke-linejoin="round" stroke-width="3"><path d="M15 20v2M15 13v2M10 22v2M10 15v2M21 17.58A5 5 0 0 0 19 8h-1.26A8 8 0 1 0 5 16.25"/></g></g></svg><svg width="18" height="18" viewBox="-1 -1 18 18" id="delete" x="44" y="122.03999999999999" xmlns="http://www.w3.org/2000/svg"><path d="M2.75 2.043l-.707.707.355.352L7.293 8l-5.25 5.25.707.707L8 8.707l4.895 4.898.355.352.707-.707-.352-.355L8.707 8l5.25-5.25-.707-.707L8 7.293 3.102 2.398z"/></svg><svg width="18" height="18" viewBox="-1 -1 18 18" id="double-arrow" x="26" y="122.03999999999999" xmlns="http://www.w3.org/2000/svg"><defs><path d="M8 1c.412 0 .679.168 1.018.508l5.726 5.725a.875.875 0 1 1-1.238 1.238L8 2.964 2.494 8.471a.875.875 0 1 1-1.238-1.238l5.746-5.746C7.335 1.155 7.588 1 8 1zm0 6c.412 0 .679.168 1.018.508l5.726 5.725a.875.875 0 1 1-1.238 1.238L8 8.964l-5.506 5.507a.875.875 0 1 1-1.238-1.238l5.746-5.746C7.335 7.155 7.588 7 8 7z" id="ga"/></defs><g fill="none" fill-rule="evenodd"><path d="M-540-538H826v768H-540z"/><g opacity=".3"><path d="M0 0h16v16H0z"/><mask id="gb" fill="#fff"><use xlink:href="#ga"/></mask><use fill="#000" fill-rule="nonzero" xlink:href="#ga"/><g mask="url(#gb)" fill="#333"><path d="M-82-57H98V73H-82z"/></g></g></g></svg><svg width="114.88" height="40.04" viewBox="-1 -1 114.88 40.04" id="logo" xmlns="http://www.w3.org/2000/svg"><path fill="red" d="M9.35 21.43v8.68h2.44V7.45H8.15c-3.59 0-6.6 2.38-6.6 7.13 0 3.39 1.33 5.23 3.33 6.25L.63 30.11h2.83l3.86-8.68zm0-2.03h-1.3c-2.12 0-3.87-1.17-3.87-4.82 0-3.77 1.91-5.07 3.87-5.07h1.3z"/><path d="M36.26 28.09H35V14.14h-7.42v1.36c0 4.25-.16 9.19-1.62 12.59h-.98v5.16h2.22v-3.14h6.85v3.14h2.21zm10.75.95l-.57-1.9c-.63.44-1.74 1.07-3.14 1.07-1.96 0-2.98-1.9-2.98-5.51h6.66v-1.37c0-5.42-1.74-7.41-4.41-7.41-3.39 0-4.82 3.74-4.82 8.87 0 4.92 2.03 7.55 5.33 7.55 1.59 0 2.92-.51 3.93-1.3zm-25.9-14.9v6.78h-3.68v-6.78h-2.47v15.97h2.47v-7.16h3.68v7.16h2.44V14.14zM56.2 30.11h2.7l-4.53-8.46 3.96-7.51h-2.51l-3.83 7.38v-7.38h-2.47v15.97h2.47v-7.95zm8.5.23c1.46 0 2.47-.48 3.33-1.21l-.57-1.84c-.57.51-1.49.99-2.7.99-1.99 0-2.95-2.29-2.95-6.28 0-4.03 1.27-6.02 3.05-6.02 1.01 0 1.96.54 2.63 1.11l.35-2.35c-.7-.44-1.52-.82-2.95-.82-3.74 0-5.67 3.2-5.67 8.21 0 5.45 2.06 8.21 5.48 8.21zm-32.14-2.25h-4.25c1.33-3.4 1.49-8.31 1.49-11.67v-.28h2.76zm10.01-12.14c1.43 0 1.87 1.99 1.87 4.72h-4.09c.16-2.85.7-4.72 2.22-4.72zm41.05 12.87h-7.06c.85-1.05 1.36-3.3 1.64-6.69.26-3.27.42-7.64.51-13.38h4.91zm1.91 5.07h1.23v-5.07h-1.55V7.45h-7.93c-.09 6.31-.19 11.32-.5 14.68-.32 3.23-.86 5.77-1.97 6.69h-.66v5.07h1.23l.22-3.78h9.7zm7.7-3.46c2.76 0 4.88-3.1 4.88-8.4 0-5.48-2.12-8.21-4.88-8.21s-4.88 3.08-4.88 8.4c0 5.45 2.12 8.21 4.88 8.21zm0-1.2c-1.87 0-3.39-2.13-3.39-7.1 0-4.85 1.52-7.07 3.39-7.07s3.39 2.06 3.39 7.07c0 4.82-1.52 7.1-3.39 7.1zm12.05-1.02h1.23l2.66-9.38c.23-.76.35-1.49.51-2.38h.13c-.06.89-.13 1.75-.13 2.82v10.84h1.43V14.14h-1.71l-2.86 9.76c-.31 1.14-.44 1.87-.54 2.7h-.12c-.1-.83-.19-1.56-.51-2.7l-2.79-9.76h-1.74v15.97h1.27V19.27c0-1.14-.1-1.93-.16-2.79h.12c.19.8.29 1.49.54 2.35z"/></svg><svg width="26" height="26" viewBox="-1 -1 26 26" id="sun" x="92" y="84.03999999999999" xmlns="http://www.w3.org/2000/svg"><g fill="none" fill-rule="evenodd"><path d="M-464-404H902v768H-464z"/><path d="M0 0h24v24H0z"/><g transform="translate(1 1)" stroke="#333" stroke-linecap="round" stroke-linejoin="round" stroke-width="2"><circle stroke-opacity=".4" cx="11" cy="11" r="5"/><path d="M11 0v2M11 20v2M3.22 3.22l1.42 1.42M17.36 17.36l1.42 1.42M0 11h2M20 11h2M3.22 18.78l1.42-1.42M17.36 4.64l1.42-1.42" stroke-opacity=".1"/></g></g></svg><svg width="26" height="26" viewBox="-1 -1 26 26" id="sun-active" x="66" y="84.03999999999999" xmlns="http://www.w3.org/2000/svg"><g fill="none" fill-rule="evenodd"><path d="M-1140-250H226v768h-1366z"/><path d="M0 0h24v24H0z"/><g transform="translate(1 1)" stroke-linecap="round" stroke-linejoin="round" stroke-width="2"><circle stroke="#F5A623" cx="11" cy="11" r="5"/><path d="M11 0v2M11 20v2M3.22 3.22l1.42 1.42M17.36 17.36l1.42 1.42M0 11h2M20 11h2M3.22 18.78l1.42-1.42M17.36 4.64l1.42-1.42" stroke="#FFD93E"/></g></g></svg><svg width="44" height="44" viewBox="-1 -1 26 26" id="sun-big" y="40.04" xmlns="http://www.w3.org/2000/svg"><g fill="none" fill-rule="evenodd"><path d="M-464-404H902v768H-464z"/><path d="M0 0h24v24H0z"/><g transform="translate(1 1)" stroke="#333" stroke-linecap="round" stroke-linejoin="round" stroke-width="2"><circle stroke-opacity=".4" cx="11" cy="11" r="5"/><path d="M11 0v2M11 20v2M3.22 3.22l1.42 1.42M17.36 17.36l1.42 1.42M0 11h2M20 11h2M3.22 18.78l1.42-1.42M17.36 4.64l1.42-1.42" stroke-opacity=".1"/></g></g></svg><svg width="38" height="38" viewBox="-1 -1 38 38" id="sun-white" x="114.88" y="44" xmlns="http://www.w3.org/2000/svg"><g transform="translate(3 3)" stroke="#FFF" stroke-width="2" fill="none" fill-rule="evenodd" stroke-linecap="round" stroke-linejoin="round"><circle cx="15" cy="15" r="7.273"/><path d="M15 1v.91M15 28.09V29M5 5l.75.75M24.25 24.25L25 25M1 15h.91M28.09 15H29M5 25l.75-.75M24.25 5.75L25 5"/></g></svg><svg width="38" height="38" viewBox="-1 -1 38 38" id="sun-white-bold" y="84.03999999999999" xmlns="http://www.w3.org/2000/svg"><g transform="translate(2 2)" stroke="#FFF" stroke-width="3" fill="none" fill-rule="evenodd" stroke-linecap="round" stroke-linejoin="round"><circle cx="16" cy="16" r="7.273"/><path d="M16 0v2.91M16 29.09V32M4.684 4.684l2.065 2.065M25.25 25.25l2.066 2.066M0 16h2.91M29.09 16H32M4.684 27.316l2.065-2.065M25.25 6.75l2.066-2.066"/></g></svg><svg width="26" height="26" viewBox="-1 -1 26 26" id="temperature" x="118" y="84.03999999999999" xmlns="http://www.w3.org/2000/svg"><g fill="none" fill-rule="evenodd"><path d="M-464-269H902v768H-464z"/><g><path d="M0 0h24v24H0z"/><path d="M14 14.76V3.5a2.5 2.5 0 1 0-5 0v11.26a4.5 4.5 0 1 0 5 0z" stroke-opacity=".4" stroke="#333" stroke-width="2" stroke-linecap="round" stroke-linejoin="round"/><circle fill-opacity=".1" fill="#333" fill-rule="nonzero" cx="11.5" cy="18.5" r="3.5"/></g></g></svg><svg width="26" height="26" viewBox="-1 -1 26 26" id="temperature-active" x="88" y="40.04" xmlns="http://www.w3.org/2000/svg"><g fill="none" fill-rule="evenodd"><path d="M-925-365H441v768H-925z"/><path d="M0 0h24v24H0z"/><g transform="translate(7 1)"><path d="M7 13.76V2.5a2.5 2.5 0 0 0-5 0v11.26a4.5 4.5 0 1 0 5 0z" stroke="#F5A623" stroke-width="2" stroke-linecap="round" stroke-linejoin="round"/><circle fill="#FFD93E" fill-rule="nonzero" cx="4.5" cy="17.5" r="3.5"/></g></g></svg><svg width="44" height="44" viewBox="-1 -1 26 26" id="temperature-active-big" x="114.88" xmlns="http://www.w3.org/2000/svg"><g fill="none" fill-rule="evenodd"><path d="M-925-365H441v768H-925z"/><path d="M0 0h24v24H0z"/><g transform="translate(7 1)"><path d="M7 13.76V2.5a2.5 2.5 0 0 0-5 0v11.26a4.5 4.5 0 1 0 5 0z" stroke="#F5A623" stroke-width="2" stroke-linecap="round" stroke-linejoin="round"/><circle fill="#FFD93E" fill-rule="nonzero" cx="4.5" cy="17.5" r="3.5"/></g></g></svg><svg width="44" height="44" viewBox="-1 -1 26 26" id="temperature-big" x="44" y="40.04" xmlns="http://www.w3.org/2000/svg"><g fill="none" fill-rule="evenodd"><path d="M-464-269H902v768H-464z"/><g><path d="M0 0h24v24H0z"/><path d="M14 14.76V3.5a2.5 2.5 0 1 0-5 0v11.26a4.5 4.5 0 1 0 5 0z" stroke-opacity=".4" stroke="#333" stroke-width="2" stroke-linecap="round" stroke-linejoin="round"/><circle fill-opacity=".1" fill="#333" fill-rule="nonzero" cx="11.5" cy="18.5" r="3.5"/></g></g></svg><svg width="26" height="26" viewBox="-1 -1 26 26" id="time" y="122.03999999999999" xmlns="http://www.w3.org/2000/svg"><g fill="none" fill-rule="evenodd"><path d="M-925-250H441v768H-925z"/><path d="M0 0h24v24H0z"/><g transform="translate(2 2)" stroke="#000" stroke-linecap="round" stroke-linejoin="round" stroke-width="2"><circle cx="10" cy="10" r="10"/><path opacity=".3" d="M10 4v6l3 3"/></g></g></svg><svg width="14" height="10" viewBox="-1 -1 14 10" id="triangle-arrow" x="144" y="100.03999999999999" xmlns="http://www.w3.org/2000/svg"><path d="M.311 5.944L5.036.59c.335-.38.492-.478.68-.543a.858.858 0 0 1 .568 0c.188.065.345.163.68.543l4.725 5.353a1.32 1.32 0 0 1 0 1.703c-.2.226-.47.353-.752.353H1.063C.476 8 0 7.46 0 6.795c0-.32.112-.626.311-.851z" fill="#333" fill-rule="nonzero"/></svg></svg>